<svg xmlns="http://www.w3.org/2000/svg" viewBox="0 0 192 192"><path d="M85.89 159.9c-.29-.09-.29-.07-.36-.38-.12-.5-.22-1-.29-1.53a25 25 0 0 1-.22-3v-2.77-.79s0-.31.27-.36a22.91 22.91 0 0 0 3.9-.65 1.19 1.19 0 0 0 .92-1.3 1.41 1.41 0 0 0-1.38-1.25 2 2 0 0 0-1.05.37 13.89 13.89 0 0 1-2.44.95c.1-.56.16-1.13.22-1.7s.27-1.4-.15-1.93a5.61 5.61 0 0 0-1.79-1.19l-1.41-.76a45.13 45.13 0 0 0 5.6-.85 1.39 1.39 0 0 0 .64-.25c.22-.22.06-.61-.05-.85a1.8 1.8 0 0 0-1.66-1 8.19 8.19 0 0 0-2.08.51c-.89.27-1.78.54-2.68.78a23.83 23.83 0 0 1-3.1.65 5.28 5.28 0 0 1-3-.17c1 1.6 3.16 1.4 4.81 1.3a2.64 2.64 0 0 1 .67-.05c.13 0 .28.23.39.33a3.68 3.68 0 0 1 .61.65 6.66 6.66 0 0 1 .83 3.65v1.58s-.29.06-.36.08c-.55.12-1.09.26-1.65.35a13.51 13.51 0 0 1-3.26.22c-1-.08-2-.55-1.9-1.76a2.1 2.1 0 0 0-.12 2.49c.69.78 2 .79 2.92.77a24.82 24.82 0 0 0 4.29-.58c0 2.69.09 5.37.27 8.06-2.79-.12-8.7-.32-8.41 3.89.14 2.07 2.27 3 4 3.38a7.23 7.23 0 0 0 5.13-.54c1.24-.79 1.4-2.17 1.56-3.51 1.37.71 2.27 2.08 3.57 2.89a1.13 1.13 0 0 0 1.14.16 1.78 1.78 0 0 0 .93-1.62 3 3 0 0 0-1.53-2.4 14.71 14.71 0 0 0-3.78-1.87zm-4 5a4.79 4.79 0 0 1-4.74.18c-1.27-.64-2.35-2-1.44-3.37a3.67 3.67 0 0 1 3.32-1.3 10.57 10.57 0 0 1 4 .89c.21.1.18.16.21.4a3.94 3.94 0 0 1-.05 1.35 3.05 3.05 0 0 1-1.28 1.84c-.8.56.74-.47-.03.04zm-9.57-20.46a3.47 3.47 0 0 0-.86-2.28 5.16 5.16 0 0 0-2.34-1.69 7 7 0 0 1 .52 3.7c-.16 1.58-.52 3.14-.79 4.7-.37 2.11-.76 4.22-1 6.36a28.21 28.21 0 0 0 0 6 13.49 13.49 0 0 0 .89 3.67 9 9 0 0 0 .93 1.72 1.5 1.5 0 0 0 .93.74.94.94 0 0 0 1.13-.93c.1-.86-.09-1.74-.08-2.61a33.15 33.15 0 0 1 .61-4.71c-.5 1.13-1.19 3.47-2.88 2.71a2.19 2.19 0 0 1-1.14-1.6 12.15 12.15 0 0 1-.4-2.39 13.51 13.51 0 0 1 .39-4.23 20.66 20.66 0 0 1 1.99-4.6c.5-.92 1-1.8 1.56-2.71a3.64 3.64 0 0 0 .54-1.82c.01-.67-.02.95 0-.01z" fill="#040000"/><path d="M91.94 146.37c-1 .06-1.44-1.2-1.91-1.87a2.65 2.65 0 0 0-1.85-1.25 5.09 5.09 0 0 1 3.64.4 2 2 0 0 1 1 1.24 1.11 1.11 0 0 1-.89 1.48zm2.24-2.16a.9.9 0 0 1-.71-.37c-.35-.37-.64-.81-1-1.21a3.29 3.29 0 0 0-2.1-1.36 6.87 6.87 0 0 1 3.44.11 1.84 1.84 0 0 1 1.19 1.17c.2.67 0 1.6-.85 1.66zM56.06 162.14a18.54 18.54 0 0 0-3.4-1.24c-.46-.12-.92-.23-1.38-.33-.08 0-.28 0-.34-.07s-.06-.28-.08-.36a25.46 25.46 0 0 1-.76-5.17v-.4s.11-.06.21-.08l1.43-.26c1.12-.21 2.24-.42 3.34-.68.52-.12 1.59-.27 1.82-.84a1.5 1.5 0 0 0-.13-1 1.29 1.29 0 0 0-.87-.69 2.43 2.43 0 0 0-1.55-.08 8.52 8.52 0 0 0-.92.48 12.34 12.34 0 0 1-3.39 1.38c0-1.26 0-2.52.12-3.78v-.65s.43-.13.59-.16l3.25-.66c.9-.19 1.81-.38 2.7-.63a7.5 7.5 0 0 0 .77-.25c.31-.13.83-.3 1-.64.27-.65-.59-1.27-1.08-1.47a2.56 2.56 0 0 0-2.09-.05 37.46 37.46 0 0 1-4.8 1.9c.06-.49.11-1 .19-1.47a20.58 20.58 0 0 1 .81-2.52 1.63 1.63 0 0 0-.11-1.48c-.6-.85-1.92-1-2.87-1.09a7.13 7.13 0 0 0-3.33.5 3.15 3.15 0 0 1 2.85 2 5.15 5.15 0 0 1 .21 1.89v2.42c0 .22 0 .19-.15.24s-.64.12-1 .19a16.84 16.84 0 0 1-3.37.4 11.7 11.7 0 0 1-4.63-.6 7.63 7.63 0 0 0 2.37 2 5.54 5.54 0 0 0 2.7.31c1.36-.08 2.7-.35 4-.55v3.95c0 .08.06.38 0 .45s-.52.13-.63.16q-.74.18-1.5.32a27.64 27.64 0 0 1-3.58.42 2.6 2.6 0 0 1-1.6-.25 1.1 1.1 0 0 1-.4-1.35 1.63 1.63 0 0 0-.16 2.12c.66.75 1.87.71 2.78.72a36.49 36.49 0 0 0 5.1-.45c.06.9.12 1.79.17 2.69 0 .58.06 1.15.07 1.73a3.25 3.25 0 0 1 0 1 4.49 4.49 0 0 1-1.07 0c-.56 0-1.13 0-1.69.06a11.79 11.79 0 0 0-3.91.87 3.55 3.55 0 0 0-2.15 2.16 3.13 3.13 0 0 0 .91 3.14 6.15 6.15 0 0 0 3.68 1.45 11.26 11.26 0 0 0 3.92-.32 3.62 3.62 0 0 0 2.37-1.7 8.06 8.06 0 0 0 .61-3c.49.26 1 .54 1.43.84a24.77 24.77 0 0 1 2.71 1.93c.73.63 1.32 1.37 2.38 1.35s1.43-1.5 1.13-2.34a5 5 0 0 0-2.73-2.41c-1.63-.88 1.76.81.05-.05zm-9.21 3.48a7 7 0 0 1-5 .32c-1.3-.4-2.58-1.41-2.1-2.92.59-1.86 2.88-1.86 4.47-1.84a12.33 12.33 0 0 1 4.1.76c.23.09.17.2.19.45a4.06 4.06 0 0 1-.11 1.36 3 3 0 0 1-1.53 1.87c-.95.49.93-.47-.01 0zM109 155.19l-2.05 1.09a36.28 36.28 0 0 1 2.77-3.87c1.63-1.92 3.34-3.77 5.14-5.53a14.74 14.74 0 0 1 1.9-1.67 5.44 5.44 0 0 0 1.53-1.12c.31-.47-.11-1-.4-1.35a6.72 6.72 0 0 0-2-1.64 2 2 0 0 0-1.08-.35 2.79 2.79 0 0 0-.65.17c-.58.2-1.15.43-1.72.66a31 31 0 0 1-5.26 1.61 4.76 4.76 0 0 1-1.87.14 2.37 2.37 0 0 1-1.78-1.84 2.59 2.59 0 0 0-.46 2.75 3.48 3.48 0 0 0 2.09 2 1.65 1.65 0 0 0 1.48-.29c.55-.37 1.08-.75 1.65-1.07 1.46-.83 2.94-1.65 4.47-2.33.69-.3 2.08-.91 2.26.34a1.42 1.42 0 0 1-.37 1c-.29.42-.6.82-.91 1.22-1.39 1.78-2.89 3.46-4.33 5.2s-2.72 3.42-4.21 5c-1.14 1.22-2.6 2.28-3.47 3.73a3.06 3.06 0 0 0-.44 1.38c0 .66.43 1.9 1.28 1.75s1.52-1.06 2-1.69c.69-.85 1.35-1.71 2.09-2.52a17.86 17.86 0 0 1 4.59-3.74 12.78 12.78 0 0 1 1.31-.62 23.83 23.83 0 0 0-3.56 1.59zm8-2q-.68 0-1.36.06a4.9 4.9 0 0 1 3.79 1.27 5.28 5.28 0 0 1 1.33 3.67c0 3-1.94 5.31-4.27 6.9a21.9 21.9 0 0 1-5 2.46 24 24 0 0 0 7.31-1.32 9.77 9.77 0 0 0 4.47-3.06 6 6 0 0 0-.61-8.06 8.54 8.54 0 0 0-5.66-1.91zM141.08 164.66a6.45 6.45 0 0 1-4.85-1.85c-1.65-1.91-1.61-4.42-1.3-6.78a26.26 26.26 0 0 1 1.91-6.42c.49-1.23 1-2.46 1.38-3.71a5.69 5.69 0 0 0 .26-3.33 3.82 3.82 0 0 0-2.47-2.51 4.39 4.39 0 0 0-3.49.57c3.13.84 3.13 4.41 2.87 7-.16 1.54-.39 3.08-.58 4.62-.25 1.94-.4 3.9-.63 5.84a14.66 14.66 0 0 0 0 5.1 5.18 5.18 0 0 0 2 3 9.76 9.76 0 0 0 9.18 1c3.14-1.22 5.34-4 6.87-6.89q.36-.69.69-1.4a13 13 0 0 1-3.79 4 11.6 11.6 0 0 1-4.71 1.63 24.29 24.29 0 0 1-3.34.13zM45.6 180.66v-.07a1.08 1.08 0 0 0 .48-.12.58.58 0 0 0 .26-.25.81.81 0 0 0 .06-.22 2.52 2.52 0 0 0 0-.26v-3.55l-.4.91-.36.81-.36.8-.4.9-.09.21-.12.29-.11.27-.07.16-.42-1-.41-.94-.37-.84-.31-.7-.23-.51-.12-.28V179.81a1 1 0 0 0 .1.39.58.58 0 0 0 .24.25 1.33 1.33 0 0 0 .45.13v.07h-1.75v-.07a1.16 1.16 0 0 0 .38-.14.65.65 0 0 0 .23-.25 1.29 1.29 0 0 0 .13-.4 4 4 0 0 0 0-.58v-.68-1.68-.33a.61.61 0 0 0-.08-.3.6.6 0 0 0-.17-.18.71.71 0 0 0-.16-.04h-.19v-.07h1.42l1.59 3.62.57-1.26.5-1.13.37-.84.16-.39h1.42v.07a.72.72 0 0 0-.42.11.55.55 0 0 0-.2.25 1.37 1.37 0 0 0-.05.35v3.16a2 2 0 0 0 0 .26.58.58 0 0 0 .06.2v.06l.12.11a.82.82 0 0 0 .2.1.92.92 0 0 0 .28.05v.07zM53.49 180.66v-.07h.26a.47.47 0 0 0 .15-.09.2.2 0 0 0 .06-.15.88.88 0 0 0 0-.2q0-.14-.1-.33l-.15-.44-.19-.5h-1.81l-.19.48-.19.46a1.68 1.68 0 0 0-.14.51.2.2 0 0 0 .05.14.41.41 0 0 0 .14.09l.18.05h.18v.07h-1.42v-.07a.74.74 0 0 0 .3-.09l.14-.1a1.44 1.44 0 0 0 .15-.22 4.81 4.81 0 0 0 .26-.51l.31-.71.36-.82.36-.85.34-.8-.07-.15a1.08 1.08 0 0 0 .22-.13l.17-.15.12-.15.08-.12h.05l.39 1 .36 1 .33.89.32.85q.07.21.14.34l.14.31.06.09a.83.83 0 0 0 .12.14.75.75 0 0 0 .19.12.69.69 0 0 0 .27.06v.08zm-.87-4l-.12.27-.19.45-.25.6-.3.73h1.66l-.23-.6-.23-.58-.2-.51zM62.14 179.78a1.2 1.2 0 0 1-.19.34 1.34 1.34 0 0 1-.27.25 1.25 1.25 0 0 1-.29.16 2 2 0 0 1-.57.11H57.91v-.07a1.47 1.47 0 0 0 .32-.09.62.62 0 0 0 .24-.17.3.3 0 0 0 .05-.12v-.18a2.06 2.06 0 0 0 0-.21v-.22V179 177.61v-.3-.35-.24-.24a2 2 0 0 0 0-.2.29.29 0 0 0-.06-.13.54.54 0 0 0-.2-.14 1.26 1.26 0 0 0-.28-.06v-.07h2.24a3.75 3.75 0 0 1 .48 0 2 2 0 0 1 .44.11 1.32 1.32 0 0 1 .56.39 1 1 0 0 1 .22.66.93.93 0 0 1-.28.71 1.47 1.47 0 0 1-.74.36 1.89 1.89 0 0 1 .47.12 1.47 1.47 0 0 1 .42.24 1.19 1.19 0 0 1 .29.36 1 1 0 0 1 .11.48 1.21 1.21 0 0 1-.05.47zM61 176.46a1 1 0 0 0-.42-.37 1.9 1.9 0 0 0-.77-.13H59.39v.07a.65.65 0 0 0 0 .08V178.1H60a1.35 1.35 0 0 0 .91-.34 1 1 0 0 0 .31-.76 1.06 1.06 0 0 0-.22-.54zm.37 2.6a1.2 1.2 0 0 0-.17-.31 1.14 1.14 0 0 0-.26-.25 1.31 1.31 0 0 0-.33-.16l-.29-.06h-.99V180.14a.53.53 0 0 0 .1.27.45.45 0 0 0 .18.12.94.94 0 0 0 .35.05h.42a1.24 1.24 0 0 0 .44-.14 1.1 1.1 0 0 0 .43-.39 1.07 1.07 0 0 0 .15-.58 1 1 0 0 0-.03-.41zM70 179.21a2.47 2.47 0 0 1-.54.79 2.39 2.39 0 0 1-.8.51 2.7 2.7 0 0 1-1.93 0A2.4 2.4 0 0 1 66 180a2.35 2.35 0 0 1-.54-.77 2.44 2.44 0 0 1-.2-1 2.47 2.47 0 0 1 .21-1 2.31 2.31 0 0 1 .56-.77 2.45 2.45 0 0 1 .82-.49 2.88 2.88 0 0 1 1-.17 2.47 2.47 0 0 1 1 .2 2.3 2.3 0 0 1 .76.54 2.35 2.35 0 0 1 .48.78 2.57 2.57 0 0 1 .17.92 2.41 2.41 0 0 1-.26.97zm-.73-1.8a2.6 2.6 0 0 0-.31-.75 1.78 1.78 0 0 0-.52-.55 1.3 1.3 0 0 0-.74-.21 1.32 1.32 0 0 0-.75.21 1.7 1.7 0 0 0-.52.54 2.51 2.51 0 0 0-.3.76 3.82 3.82 0 0 0-.1.86 3.53 3.53 0 0 0 .11.87 2.42 2.42 0 0 0 .32.74 1.65 1.65 0 0 0 .53.51 1.38 1.38 0 0 0 .74.19 1.25 1.25 0 0 0 .73-.21 1.8 1.8 0 0 0 .52-.55 2.64 2.64 0 0 0 .31-.76 3.51 3.51 0 0 0 .1-.84 3.37 3.37 0 0 0-.08-.8zM76.81 180.66l-.09-.09-.06-.07-.08-.12-.16-.23-.22-.34-.2-.3-.22-.3-.28-.34a2.74 2.74 0 0 0-.29-.29.71.71 0 0 0-.33-.17H74.54V180.07a.49.49 0 0 0 .07.25.59.59 0 0 0 .21.18.94.94 0 0 0 .43.1v.07h-2.11v-.07a1.84 1.84 0 0 0 .32-.08.52.52 0 0 0 .24-.16.3.3 0 0 0 .05-.12 1.23 1.23 0 0 0 0-.18v-.21-.22-.63-2.07-.24-.23a1.31 1.31 0 0 0 0-.2.28.28 0 0 0-.06-.13.5.5 0 0 0-.22-.14l-.3-.06v-.07h2.62a1.58 1.58 0 0 1 .63.18 1.28 1.28 0 0 1 .47.42 1.15 1.15 0 0 1 .18.66 1.05 1.05 0 0 1-.09.44 1.18 1.18 0 0 1-.24.35 1.46 1.46 0 0 1-.35.26 2.71 2.71 0 0 1-.42.18.84.84 0 0 1 .22.17 2.4 2.4 0 0 1 .21.25l.38.55.36.52a2 2 0 0 0 .48.51 1.29 1.29 0 0 0 .55.21v.07zm-.66-4.15a1.15 1.15 0 0 0-.49-.41 1.46 1.46 0 0 0-.34-.11 2 2 0 0 0-.37 0h-.35v.01a.55.55 0 0 0 0 .08v2.2h.51a2 2 0 0 0 .46-.1 1.22 1.22 0 0 0 .37-.18 1 1 0 0 0 .25-.26 1.06 1.06 0 0 0 .14-.31 1.28 1.28 0 0 0 0-.35 1.07 1.07 0 0 0-.18-.57zM85.36 179.21a2.47 2.47 0 0 1-.54.79 2.39 2.39 0 0 1-.8.51 2.7 2.7 0 0 1-1.93 0 2.41 2.41 0 0 1-.79-.5 2.35 2.35 0 0 1-.54-.77 2.63 2.63 0 0 1 0-2 2.32 2.32 0 0 1 .56-.77 2.45 2.45 0 0 1 .82-.49 2.88 2.88 0 0 1 1-.17 2.47 2.47 0 0 1 1 .2 2.31 2.31 0 0 1 .76.54 2.36 2.36 0 0 1 .48.78 2.57 2.57 0 0 1 .17.92 2.42 2.42 0 0 1-.19.96zm-.73-1.8a2.59 2.59 0 0 0-.31-.75 1.79 1.79 0 0 0-.52-.55 1.3 1.3 0 0 0-.74-.21 1.32 1.32 0 0 0-.75.21 1.71 1.71 0 0 0-.52.54 2.51 2.51 0 0 0-.3.76 3.83 3.83 0 0 0-.1.86 3.52 3.52 0 0 0 .11.87 2.41 2.41 0 0 0 .32.74 1.65 1.65 0 0 0 .53.51 1.38 1.38 0 0 0 .74.19 1.26 1.26 0 0 0 .73-.21 1.8 1.8 0 0 0 .52-.55 2.63 2.63 0 0 0 .31-.76 3.49 3.49 0 0 0 .1-.84 3.36 3.36 0 0 0-.12-.8zM91.77 179.92a1.3 1.3 0 0 1-.36.43 1.52 1.52 0 0 1-.55.27 2.67 2.67 0 0 1-.7.09 3.35 3.35 0 0 1-.56 0 2.17 2.17 0 0 1-.39-.1l-.23-.1h-.1l-.09.08-.12.15h-.06v-1.32h.07a2.1 2.1 0 0 0 .15.35 2.85 2.85 0 0 0 .2.32 1.79 1.79 0 0 0 .23.26 1.14 1.14 0 0 0 .24.17l.3.12a1.25 1.25 0 0 0 1.16-.21.92.92 0 0 0 .31-.73.83.83 0 0 0-.06-.33.78.78 0 0 0-.21-.37 1 1 0 0 0-.24-.18l-.3-.13-.28-.1-.22-.08-.21-.07-.26-.1a1.45 1.45 0 0 1-.33-.18 1.35 1.35 0 0 1-.28-.27 1.37 1.37 0 0 1-.19-.35 1.11 1.11 0 0 1-.07-.4 1.36 1.36 0 0 1 .13-.62 1.27 1.27 0 0 1 .35-.43 1.49 1.49 0 0 1 .51-.26 2.19 2.19 0 0 1 .61-.08 2.28 2.28 0 0 1 .51 0 2.06 2.06 0 0 1 .35.11l.21.11h.08l.08-.08.12-.16h.07v1.23h-.07a2.68 2.68 0 0 0-.21-.44 2 2 0 0 0-.29-.39 1.42 1.42 0 0 0-.38-.28 1 1 0 0 0-.47-.11 1.24 1.24 0 0 0-.39.06.9.9 0 0 0-.32.18.82.82 0 0 0-.21.3 1 1 0 0 0-.08.4.77.77 0 0 0 .21.57 1.51 1.51 0 0 0 .55.34l.25.09.23.08.23.08.24.09a1.55 1.55 0 0 1 .7.48 1.36 1.36 0 0 1 .12 1.36zM98.27 180.66v-.07a1.36 1.36 0 0 0 .41-.09.46.46 0 0 0 .22-.16.23.23 0 0 0 0-.08v-.14-.17-.17-1.5h-2.57V180.08a.48.48 0 0 0 .06.25.5.5 0 0 0 .23.17 1 1 0 0 0 .29.07v.07h-2v-.07a1.42 1.42 0 0 0 .32-.09.61.61 0 0 0 .23-.16.28.28 0 0 0 0-.11 1.62 1.62 0 0 0 0-.18v-.22-.22V179v-2.3-.22a1.34 1.34 0 0 0 0-.19.31.31 0 0 0-.06-.13.53.53 0 0 0-.23-.16 1.36 1.36 0 0 0-.31-.07v-.07h2v.07h-.2a.63.63 0 0 0-.19.08.48.48 0 0 0-.15.16.53.53 0 0 0-.07.25v1.69H99v-1.07-.39-.26a.49.49 0 0 0-.06-.22.5.5 0 0 0-.27-.22 1.35 1.35 0 0 0-.31-.05v-.07h2v.07a1.07 1.07 0 0 0-.31.09.47.47 0 0 0-.23.2.39.39 0 0 0 0 .13v3.77a.5.5 0 0 0 0 .22.46.46 0 0 0 .23.19 1.42 1.42 0 0 0 .32.07v.07zM103.38 180.66v-.07a1.34 1.34 0 0 0 .31-.09.66.66 0 0 0 .24-.17.27.27 0 0 0 0-.11 1.52 1.52 0 0 0 0-.17v-.21-.22-.62-2.3-.22a1.34 1.34 0 0 0 0-.19.31.31 0 0 0-.06-.13.53.53 0 0 0-.23-.16 1.36 1.36 0 0 0-.31-.07v-.07h2v.07l-.3.07a.43.43 0 0 0-.25.21.63.63 0 0 0-.06.29v3.59a.48.48 0 0 0 .06.25.5.5 0 0 0 .25.17 1.37 1.37 0 0 0 .31.07v.07zM116.76 177.41a2.26 2.26 0 0 0-.26-.6 2.13 2.13 0 0 0-.41-.49 1.86 1.86 0 0 0-.53-.33 1.66 1.66 0 0 0-.63-.12 1.61 1.61 0 0 0-.82.21 1.89 1.89 0 0 0-.6.55 2.59 2.59 0 0 0-.37.77 3 3 0 0 0-.13.88 2.88 2.88 0 0 0 .14.9 2.23 2.23 0 0 0 .39.73 1.85 1.85 0 0 0 .61.49 1.76 1.76 0 0 0 .8.18 1.67 1.67 0 0 0 .65-.13 2 2 0 0 0 .54-.33 2 2 0 0 0 .4-.48 1.76 1.76 0 0 0 .22-.56h.08v1.46h-.08l-.17-.21c-.06-.06-.1-.09-.12-.09l-.12.07a1.92 1.92 0 0 1-.31.15 2.9 2.9 0 0 1-.49.15 3.09 3.09 0 0 1-.66.06 3.34 3.34 0 0 1-1.12-.18 2.42 2.42 0 0 1-.85-.5 2.17 2.17 0 0 1-.54-.77 2.56 2.56 0 0 1-.19-1 2.53 2.53 0 0 1 0-.27 2.43 2.43 0 0 1 .06-.33 2.73 2.73 0 0 1 .12-.36 2.48 2.48 0 0 1 .2-.38 2.4 2.4 0 0 1 .35-.43 2.21 2.21 0 0 1 .49-.36 2.69 2.69 0 0 1 .63-.25 3.1 3.1 0 0 1 .79-.09 3 3 0 0 1 .7.07 3.2 3.2 0 0 1 .5.16 1.88 1.88 0 0 1 .31.16l.12.07h.05l.08-.07.09-.1.09-.12h.07v1.49zM122.75 179.67a1.74 1.74 0 0 1-.34.53 1.53 1.53 0 0 1-.5.35 1.44 1.44 0 0 1-.6.13 1.7 1.7 0 0 1-.54-.09 1.53 1.53 0 0 1-.52-.3 1.54 1.54 0 0 1-.39-.52 1.71 1.71 0 0 1-.15-.74 1.56 1.56 0 0 1 .12-.59 1.58 1.58 0 0 1 .83-.86 1.6 1.6 0 0 1 1.19 0 1.53 1.53 0 0 1 .86.79 1.58 1.58 0 0 1 .14.7 1.65 1.65 0 0 1-.1.6zm-.54-1.14a1.78 1.78 0 0 0-.16-.48 1.07 1.07 0 0 0-.3-.36.73.73 0 0 0-.46-.14.63.63 0 0 0-.39.13 1.15 1.15 0 0 0-.3.35 1.8 1.8 0 0 0-.19.49 2.41 2.41 0 0 0-.06.55 3 3 0 0 0 .05.58 1.57 1.57 0 0 0 .17.48 1 1 0 0 0 .31.33.79.79 0 0 0 .45.12.63.63 0 0 0 .44-.16 1.18 1.18 0 0 0 .29-.39 2.09 2.09 0 0 0 .16-.51 2.83 2.83 0 0 0 0-.51 2.59 2.59 0 0 0-.01-.48zM124.68 180.57a.4.4 0 0 1-.28.1.41.41 0 0 1-.29-.1.36.36 0 0 1-.11-.28.4.4 0 0 1 .11-.29.38.38 0 0 1 .29-.12.35.35 0 0 1 .28.12.44.44 0 0 1 .11.3.35.35 0 0 1-.11.27zM127.22 180.95a1 1 0 0 1-.14.25 1.6 1.6 0 0 1-.19.21l-.22.18a1.63 1.63 0 0 0 .31-.37.89.89 0 0 0 .12-.47.55.55 0 0 0 0-.22q0-.11-.12-.12a.31.31 0 0 1-.1.21.34.34 0 0 1-.24.08.31.31 0 0 1-.23-.09.33.33 0 0 1-.09-.24.36.36 0 0 1 .13-.3.46.46 0 0 1 .3-.1.49.49 0 0 1 .25.06.65.65 0 0 1 .19.17.77.77 0 0 1 .12.24.86.86 0 0 1 0 .27.84.84 0 0 1-.09.24zM138.29 180.66H134v-.07a1.75 1.75 0 0 0 .33-.09.62.62 0 0 0 .26-.17.34.34 0 0 0 .06-.12 1.13 1.13 0 0 0 0-.18v-.21-.22-.6-2.3-.22a1.23 1.23 0 0 0 0-.18.3.3 0 0 0-.06-.13.59.59 0 0 0-.25-.17 1.36 1.36 0 0 0-.33-.08v-.07h2.12v.07h-.21a.83.83 0 0 0-.23.09.56.56 0 0 0-.18.17.53.53 0 0 0-.08.29V180.06a.6.6 0 0 0 .07.29.27.27 0 0 0 .11.07l.19.06h1.24l.26-.05a1.48 1.48 0 0 0 .44-.19 1.4 1.4 0 0 0 .3-.28 1.69 1.69 0 0 0 .21-.34q.09-.18.17-.38h.07zM143.06 177.92h-1v1.75a.69.69 0 0 0 .15.49.5.5 0 0 0 .38.15.71.71 0 0 0 .32-.06.59.59 0 0 0 .22-.2 1.3 1.3 0 0 1-.11.21.8.8 0 0 1-.19.2.9.9 0 0 1-.27.14 1.22 1.22 0 0 1-.37 0 .83.83 0 0 1-.27 0 .69.69 0 0 1-.23-.13.77.77 0 0 1-.16-.19.4.4 0 0 1-.06-.21v-1.19-1H141v-.07l1-.91v.58h1.23zM148.09 180.68V180a1.35 1.35 0 0 1-.46.49 1.24 1.24 0 0 1-.66.16 1.22 1.22 0 0 1-.48-.1 1.12 1.12 0 0 1-.41-.3 1.52 1.52 0 0 1-.29-.5 2 2 0 0 1-.11-.68 1.68 1.68 0 0 1 .12-.65 1.56 1.56 0 0 1 .88-.87 1.83 1.83 0 0 1 .69-.13 2 2 0 0 1 .38 0l.32.08v-.27V176.31l-.55-.21 1.06-.29h.05v4.32l.2.09.27.11zm0-2.5a1.29 1.29 0 0 0-.37-.44.73.73 0 0 0-.42-.17.79.79 0 0 0-.44.12 1 1 0 0 0-.3.32 1.5 1.5 0 0 0-.18.46 2.5 2.5 0 0 0-.06.53 2.1 2.1 0 0 0 .07.53 1.44 1.44 0 0 0 .2.45 1.06 1.06 0 0 0 .33.32.86.86 0 0 0 .46.12.66.66 0 0 0 .47-.19.85.85 0 0 0 .25-.47zM151.51 180.57a.4.4 0 0 1-.28.1.41.41 0 0 1-.29-.1.36.36 0 0 1-.11-.28.4.4 0 0 1 .11-.29.38.38 0 0 1 .29-.12.35.35 0 0 1 .28.12.44.44 0 0 1 .11.3.35.35 0 0 1-.11.27zM138 10.65a196.36 196.36 0 0 0-28.18 6.12 138.07 138.07 0 0 0-29.53 12.58 98.46 98.46 0 0 0-18 13.22 64.37 64.37 0 0 0-8.57 9.65 10.68 10.68 0 0 0-1.41 2.16c0 .06-.1.12-.1.18a2.71 2.71 0 0 0 .26.57l.73 1.56 5 10.62 2.38 5.09a93.42 93.42 0 0 1 26.32-8.81 88.25 88.25 0 0 0-12.58 10.29q-2.94 2.91-5.59 6.1-.66.79-1.3 1.6A13.52 13.52 0 0 0 66 83.43c-.19.36-.12.4.06.78l.44.93.95 2 4.17 8.91a56.32 56.32 0 0 1 18-9 28.86 28.86 0 0 0-7.19 11.12 30.82 30.82 0 0 0-.75 16.16 51.87 51.87 0 0 0 4 11.63c.2-.43 0-1-.09-1.43s-.14-1.12-.2-1.68q-.17-1.75-.17-3.52a36.6 36.6 0 0 1 .62-6.91 41.41 41.41 0 0 1 4.12-11.31 46.15 46.15 0 0 1 3.9-5.56 37.27 37.27 0 0 1 5.4-5.24q1.57-1.24 3.26-2.33a4.25 4.25 0 0 0 1.47-1.1 21.1 21.1 0 0 0 1-2l4-8.63a68.25 68.25 0 0 0-17.67 0 79.36 79.36 0 0 1 21.92-10.54 2.79 2.79 0 0 0 .79-.23 3.76 3.76 0 0 0 .47-1l1-2.14 1.8-3.84 4.2-9a113 113 0 0 0-34.87-1.71c2-1.07 4-2.19 6.07-3.13 2.53-1.14 5.1-2 7.72-2.93A91.59 91.59 0 0 1 113 38.62c3.29-.61 6.57-1.2 9.9-1.6l2.43-.27 1.22-.12.61-.06c.4 0 .38 0 .59-.33a14.82 14.82 0 0 0 1.01-2.24l1.2-2.56c3.28-7 6.43-14.07 9.85-21z" fill="#040000"/></svg>