<svg xmlns="http://www.w3.org/2000/svg" viewBox="0 0 16 16"><path d="M7.16 13.32v-.13a2.08 2.08 0 0 1 0-.25v-.23-.07a1.91 1.91 0 0 0 .32-.05.1.1 0 0 0 .08-.11.12.12 0 0 0-.11-.1.16.16 0 0 0-.09 0l-.2.08v-.14-.16A.47.47 0 0 0 7 12h-.15a3.76 3.76 0 0 0 .47-.07h.05v-.07a.15.15 0 0 0-.14-.09.68.68 0 0 0-.17 0l-.22.07-.26.05a.44.44 0 0 1-.25 0c.08.13.26.12.4.11h.06l.05.05a.56.56 0 0 1 .07.3v.1h-.14a1.13 1.13 0 0 1-.27 0c-.09 0-.17 0-.16-.15a.17.17 0 0 0 0 .21.31.31 0 0 0 .24.06 2.07 2.07 0 0 0 .36 0v.67c-.23 0-.72 0-.7.32 0 .17.19.25.34.28a.6.6 0 0 0 .43 0 .36.36 0 0 0 .13-.29c.11.06.19.17.3.24a.09.09 0 0 0 .1 0 .15.15 0 0 0 .08-.13.25.25 0 0 0-.13-.2 1.23 1.23 0 0 0-.33-.14zm-.33.42a.4.4 0 0 1-.39 0c-.11-.05-.2-.17-.12-.28a.31.31 0 0 1 .28-.11.88.88 0 0 1 .33.07.33.33 0 0 1 0 .11.25.25 0 0 1-.11.15zM6 12a.29.29 0 0 0 0-.15.43.43 0 0 0-.19-.14.58.58 0 0 1 0 .31c0 .13 0 .26-.07.39s-.06.35-.08.53a2.35 2.35 0 0 0 0 .5 1.12 1.12 0 0 0 .07.31.75.75 0 0 0 .08.14.13.13 0 0 0 .08.06.08.08 0 0 0 .11-.08v-.22a2.76 2.76 0 0 1 0-.39c0 .09-.1.29-.24.23a.18.18 0 0 1-.09-.13 1 1 0 0 1 0-.2 1.13 1.13 0 0 1 0-.35 1.72 1.72 0 0 1 .16-.38l.17-.24A.3.3 0 0 0 6 12s0 .12 0 0z" fill="#040000"/><path d="M7.66 12.2c-.08 0-.12-.1-.16-.16a.22.22 0 0 0-.15-.1.42.42 0 0 1 .3 0 .17.17 0 0 1 .08.1.09.09 0 0 1-.07.12zm.19-.2a.08.08 0 0 1-.06 0l-.08-.1a.27.27 0 0 0-.18-.11.57.57 0 0 1 .29 0 .15.15 0 0 1 .1.1c0 .06 0 .13-.07.14zM4.67 13.51a1.54 1.54 0 0 0-.28-.1h-.11a2.12 2.12 0 0 1-.06-.43h.12l.28-.06s.13 0 .15-.07a.13.13 0 0 0 0-.08.11.11 0 0 0-.07-.06.2.2 0 0 0-.13 0h-.08a1 1 0 0 1-.28.11v-.32-.05l.27-.05.22-.05h.06s.07 0 .08-.05 0-.11-.09-.12a.21.21 0 0 0-.17 0 3.12 3.12 0 0 1-.4.16v-.12a1.72 1.72 0 0 1 .07-.21.14.14 0 0 0 0-.12.32.32 0 0 0-.25-.24.59.59 0 0 0-.28 0 .26.26 0 0 1 .24.17A.43.43 0 0 1 4 12v.2H3.64a1 1 0 0 1-.39-.05.64.64 0 0 0 .2.17.46.46 0 0 0 .23 0h.34v.33H3.58a.22.22 0 0 1-.13 0 .09.09 0 0 1 0-.11.14.14 0 0 0 0 .18c.05.06.16.06.23.06a3 3 0 0 0 .42 0C4 13 4 13 4 13.12v.14a.27.27 0 0 1 0 .08h-.19a1 1 0 0 0-.33.07.3.3 0 0 0-.18.18.26.26 0 0 0 .08.26.51.51 0 0 0 .31.12A.94.94 0 0 0 4 14a.3.3 0 0 0 .2-.14.67.67 0 0 0 .05-.25l.12.07a2.06 2.06 0 0 1 .23.16c.06.05.11.11.2.11s.12-.13.09-.2a.42.42 0 0 0-.23-.2zm-.77.29a.59.59 0 0 1-.42 0c-.11 0-.21-.12-.17-.24s.24-.15.37-.15a1 1 0 0 1 .32.09.34.34 0 0 1 0 .11.25.25 0 0 1-.13.16zM9.08 12.93l-.17.07a3 3 0 0 1 .23-.32c.14-.16.28-.31.43-.46a1.23 1.23 0 0 1 .16-.14.45.45 0 0 0 .13-.08v-.11a.56.56 0 0 0-.16-.14.16.16 0 0 0-.09 0h-.1l-.14.06a2.58 2.58 0 0 1-.44.13.4.4 0 0 1-.16 0 .2.2 0 0 1-.15-.15.22.22 0 0 0 0 .23.29.29 0 0 0 .17.17.14.14 0 0 0 .12 0l.09-.12.37-.19c.06 0 .17-.08.19 0a.12.12 0 0 1 0 .08l-.08.1-.36.43c-.12.14-.23.28-.35.42a2 2 0 0 0-.29.31.26.26 0 0 0 0 .11c0 .06 0 .16.11.15s.13-.09.17-.14l.17-.21a1.49 1.49 0 0 1 .38-.31l.11-.05a2 2 0 0 0-.34.16zm.67-.17h-.11a.41.41 0 0 1 .32.11.44.44 0 0 1 .11.31.72.72 0 0 1-.36.57 1.83 1.83 0 0 1-.42.2 2 2 0 0 0 .61-.11.81.81 0 0 0 .37-.26.5.5 0 0 0-.05-.67.71.71 0 0 0-.47-.16zM11.76 13.72a.54.54 0 0 1-.4-.15.69.69 0 0 1-.11-.56 2.19 2.19 0 0 1 .16-.53c0-.1.08-.2.11-.31a.47.47 0 0 0 0-.28.32.32 0 0 0-.21-.21.37.37 0 0 0-.29 0c.26.07.26.37.24.59s0 .26 0 .39 0 .32-.05.49a1.22 1.22 0 0 0 0 .42.43.43 0 0 0 .17.25.81.81 0 0 0 .76.08 1.17 1.17 0 0 0 .57-.57l.06-.12a1.08 1.08 0 0 1-.32.33 1 1 0 0 1-.39.14zM3.8 15.05V14.75 15.05v-.34.23h-.3v-.26h.1l.13.3v-.26H4V15h-.2zM4.46 15.05v-.08h-.15v-.27.31V15h.15zm-.07-.34v.11h.14zM5.18 15h-.3v-.32h.22a.08.08 0 0 1 0 .05.08.08 0 0 1 0 .06h-.06a.1.1 0 0 1 .14.21zm-.09-.28h-.1v.16H5a.11.11 0 0 0 .08 0 .09.09 0 0 0 0-.06.09.09 0 0 0 0-.12zm0 .22h-.15V15h.12a.09.09 0 0 0 .05-.08zM5.84 14.93V15H5.5v-.06a.2.2 0 0 1 0-.08.21.21 0 0 1 0-.09v-.06H5.79v.06a.21.21 0 0 1 0 .08.2.2 0 0 1 .05.08zm-.06-.15v-.06h-.12v.06a.32.32 0 0 0 0 .07.29.29 0 0 0 0 .07v.06h.12v-.06a.29.29 0 0 0 0-.07.28.28 0 0 0 0-.07zM6.4 15.05h-.19V15h-.06v-.32h.22a.1.1 0 0 1 0 .06h.03zm-.05-.35h-.14v.17h.11a.09.09 0 0 0 .03-.16zM7.11 14.93V15h-.34v-.06a.22.22 0 0 1 0-.17v-.06H7.06v.06a.21.21 0 0 1 0 .08.2.2 0 0 1 .05.08zm-.06-.15v-.06h-.12v.06a.32.32 0 0 0 0 .07.29.29 0 0 0 0 .07v.06h.06L7 15v-.06a.29.29 0 0 0 0-.07.28.28 0 0 0 .05-.09zM7.65 15h-.26v-.11h.14a.08.08 0 0 0 0-.06h-.07a.11.11 0 0 1 0-.05h.17v.1h-.1.14a.11.11 0 0 1 0 .11zM8.19 15.05h.06v-.13H8V15v-.31.16h.22v-.16h.12V15h-.15zM8.62 15.05h.05v-.31h.09V15h-.14zM9.73 14.78h-.27v.06a.25.25 0 0 0 0 .07.24.24 0 0 0 0 .07v.06H9.63V15h-.22a.18.18 0 0 1 0-.06.21.21 0 0 1 0-.08v-.08h.28v.12zM10.23 15h-.09a.14.14 0 0 1 0-.06h.1a.13.13 0 0 1 0 .06.14.14 0 0 1-.01 0zm0-.09h-.07.07a.22.22 0 0 0-.05-.03zM10.39 15zM10.6 15.08h.06v.07zM11.52 15.05h-.3v-.31h.07V15h.15zM11.92 14.83h-.08V15h.06-.09v-.18l.08-.08h.1zM12.34 15.06V15h-.14a.17.17 0 0 1 0-.06.14.14 0 0 1 0-.05h.12v-.1h.09V15zm0-.21h-.07zM12.63 15zM11.5.89a16.36 16.36 0 0 0-2.35.51 11.51 11.51 0 0 0-2.46 1 8.21 8.21 0 0 0-1.5 1.1 5.36 5.36 0 0 0-.71.8.89.89 0 0 0-.12.18l.06.13.41.88L5 6a7.79 7.79 0 0 1 2.2-.74 7.35 7.35 0 0 0-1 .86q-.25.24-.47.51l-.11.13A1.13 1.13 0 0 0 5.5 7V7.15l.08.17L6 8a4.69 4.69 0 0 1 1.5-.75 2.4 2.4 0 0 0-.6.93 2.57 2.57 0 0 0-.06 1.35 4.32 4.32 0 0 0 .33 1v-.26-.29a3 3 0 0 1 .05-.58 3.45 3.45 0 0 1 .34-.94A3.85 3.85 0 0 1 7.82 8a3.11 3.11 0 0 1 .45-.44l.27-.19a.35.35 0 0 0 .12-.09 1.76 1.76 0 0 0 .08-.17l.34-.72a5.69 5.69 0 0 0-1.47 0 6.61 6.61 0 0 1 1.83-.88h.07a.31.31 0 0 0 0-.08l.08-.18.15-.32.35-.75A9.42 9.42 0 0 0 7.21 4c.17-.09.33-.18.51-.26s.42-.17.64-.24a7.63 7.63 0 0 1 1.05-.27c.27-.05.55-.1.82-.13h.35a1.24 1.24 0 0 0 .09-.19l.1-.21c.27-.58.54-1.17.82-1.75z" fill="#040000"/></svg>